<?xml version="1.0" encoding="UTF-8" standalone="no"?>
<!-- Created with Inkscape (http://www.inkscape.org/) -->

<svg
   xmlns:dc="http://purl.org/dc/elements/1.1/"
   xmlns:cc="http://creativecommons.org/ns#"
   xmlns:rdf="http://www.w3.org/1999/02/22-rdf-syntax-ns#"
   xmlns:svg="http://www.w3.org/2000/svg"
   xmlns="http://www.w3.org/2000/svg"
   xmlns:sodipodi="http://sodipodi.sourceforge.net/DTD/sodipodi-0.dtd"
   xmlns:inkscape="http://www.inkscape.org/namespaces/inkscape"
   width="91.990929mm"
   height="24.013859mm"
   viewBox="0 0 91.990929 24.013859"
   version="1.1"
   id="svg8"
   inkscape:version="0.92.1 r15371"
   sodipodi:docname="aimeelogo.svg">
  <defs
     id="defs2">
    <inkscape:perspective
       id="perspective4596"
       inkscape:persp3d-origin="105 : 99 : 1"
       inkscape:vp_z="210.00001 : 148.5 : 1"
       inkscape:vp_y="0 : 1000 : 0"
       inkscape:vp_x="0 : 148.5 : 1"
       sodipodi:type="inkscape:persp3d" />
    <inkscape:perspective
       id="perspective4596-3"
       inkscape:persp3d-origin="105 : 99 : 1"
       inkscape:vp_z="210.00001 : 148.5 : 1"
       inkscape:vp_y="0 : 1000 : 0"
       inkscape:vp_x="0 : 148.5 : 1"
       sodipodi:type="inkscape:persp3d" />
    <inkscape:perspective
       id="perspective4596-1"
       inkscape:persp3d-origin="105 : 99 : 1"
       inkscape:vp_z="210.00001 : 148.5 : 1"
       inkscape:vp_y="0 : 1000 : 0"
       inkscape:vp_x="0 : 148.5 : 1"
       sodipodi:type="inkscape:persp3d" />
    <inkscape:perspective
       id="perspective4596-34"
       inkscape:persp3d-origin="105 : 99 : 1"
       inkscape:vp_z="210.00001 : 148.5 : 1"
       inkscape:vp_y="0 : 1000 : 0"
       inkscape:vp_x="0 : 148.5 : 1"
       sodipodi:type="inkscape:persp3d" />
  </defs>
  <sodipodi:namedview
     id="base"
     pagecolor="#ffffff"
     bordercolor="#666666"
     borderopacity="1.0"
     inkscape:pageopacity="0.0"
     inkscape:pageshadow="2"
     inkscape:zoom="1.8101934"
     inkscape:cx="162.62087"
     inkscape:cy="-10.394089"
     inkscape:document-units="mm"
     inkscape:current-layer="layer1"
     showgrid="false"
     showborder="false"
     showguides="false"
     inkscape:guide-bbox="true"
     inkscape:snap-bbox="true"
     inkscape:bbox-paths="true"
     inkscape:bbox-nodes="true"
     inkscape:snap-bbox-edge-midpoints="true"
     inkscape:snap-bbox-midpoints="true"
     inkscape:object-paths="true"
     inkscape:snap-intersection-paths="true"
     inkscape:snap-smooth-nodes="true"
     inkscape:snap-midpoints="true"
     inkscape:snap-global="false"
     inkscape:snap-object-midpoints="true"
     inkscape:snap-center="true"
     inkscape:snap-nodes="true"
     inkscape:snap-others="true"
     inkscape:window-width="1280"
     inkscape:window-height="1002"
     inkscape:window-x="-8"
     inkscape:window-y="-8"
     inkscape:window-maximized="1"
     fit-margin-top="0"
     fit-margin-left="0"
     fit-margin-right="0"
     fit-margin-bottom="0">
    <sodipodi:guide
       position="-1031.943,-484.01829"
       orientation="0,1"
       id="guide5147"
       inkscape:locked="false" />
    <sodipodi:guide
       position="-1034.8663,-388.76826"
       orientation="0,1"
       id="guide5149"
       inkscape:locked="false" />
    <sodipodi:guide
       position="-1660.6697,-23.643262"
       orientation="1,0"
       id="guide5153"
       inkscape:locked="false" />
    <sodipodi:guide
       position="-1990.0161,-10.414102"
       orientation="1,0"
       id="guide5155"
       inkscape:locked="false" />
    <sodipodi:guide
       position="-1821.0733,-35.218782"
       orientation="1,0"
       id="guide5157"
       inkscape:locked="false" />
    <sodipodi:guide
       position="-1897.141,-31.911492"
       orientation="1,0"
       id="guide5159"
       inkscape:locked="false" />
    <sodipodi:guide
       position="-1740.0447,-51.755242"
       orientation="1,0"
       id="guide5161"
       inkscape:locked="false" />
    <sodipodi:guide
       position="-918.84415,-341.14325"
       orientation="1,0"
       id="guide5165"
       inkscape:locked="false" />
    <sodipodi:guide
       position="-1045.8441,-293.51825"
       orientation="1,0"
       id="guide5167"
       inkscape:locked="false" />
    <sodipodi:guide
       position="-791.84416,-293.51824"
       orientation="1,0"
       id="guide5171"
       inkscape:locked="false" />
    <sodipodi:guide
       position="-1109.3441,-341.14324"
       orientation="1,0"
       id="guide5173"
       inkscape:locked="false" />
    <sodipodi:guide
       position="-728.34418,-341.14324"
       orientation="1,0"
       id="guide5175"
       inkscape:locked="false" />
    <sodipodi:guide
       position="-982.34415,-531.64327"
       orientation="1,0"
       id="guide5181"
       inkscape:locked="false" />
    <sodipodi:guide
       position="-855.34416,-531.64327"
       orientation="1,0"
       id="guide5183"
       inkscape:locked="false" />
    <sodipodi:guide
       position="-934.30609,-547.51826"
       orientation="0,1"
       id="guide5187"
       inkscape:locked="false" />
    <sodipodi:guide
       position="-930.79818,-452.26829"
       orientation="0,1"
       id="guide5295"
       inkscape:locked="false" />
    <sodipodi:guide
       position="-948.33774,-420.51825"
       orientation="0,1"
       id="guide5297"
       inkscape:locked="false" />
    <sodipodi:guide
       position="-938.98331,-515.76825"
       orientation="0,1"
       id="guide5299"
       inkscape:locked="false" />
    <sodipodi:guide
       position="-1077.5941,-436.39326"
       orientation="1,0"
       id="guide5303"
       inkscape:locked="false" />
    <sodipodi:guide
       position="-760.09418,-436.39329"
       orientation="1,0"
       id="guide5305"
       inkscape:locked="false" />
    <sodipodi:guide
       position="-1014.0941,-436.39324"
       orientation="1,0"
       id="guide5307"
       inkscape:locked="false" />
    <sodipodi:guide
       position="-823.59415,-436.39329"
       orientation="1,0"
       id="guide5309"
       inkscape:locked="false" />
    <sodipodi:guide
       position="-807.71917,-432.52061"
       orientation="1,0"
       id="guide5311"
       inkscape:locked="false" />
    <sodipodi:guide
       position="-1029.9692,-436.39326"
       orientation="1,0"
       id="guide5315"
       inkscape:locked="false" />
    <sodipodi:guide
       position="205.05627,141.72133"
       orientation="1,0"
       id="guide5336"
       inkscape:locked="false" />
    <sodipodi:guide
       position="267.06797,189.26365"
       orientation="1,0"
       id="guide5338"
       inkscape:locked="false" />
    <sodipodi:guide
       position="-696.59417,-341.14324"
       orientation="1,0"
       id="guide5350"
       inkscape:locked="false" />
    <sodipodi:guide
       position="-1061.7192,-436.39324"
       orientation="1,0"
       id="guide5364"
       inkscape:locked="false" />
    <sodipodi:guide
       position="-496.74792,-793.88383"
       orientation="0,1"
       id="guide5408"
       inkscape:locked="false" />
  </sodipodi:namedview>
  <metadata
     id="metadata5">
    <rdf:RDF>
      <cc:Work
         rdf:about="">
        <dc:format>image/svg+xml</dc:format>
        <dc:type
           rdf:resource="http://purl.org/dc/dcmitype/StillImage" />
        <dc:title></dc:title>
      </cc:Work>
    </rdf:RDF>
  </metadata>
  <g
     inkscape:label="Layer 1"
     inkscape:groupmode="layer"
     id="layer1"
     transform="translate(-1172.8441,306.28214)">
    <g
       style="fill:#831e6a;fill-opacity:0.86956518;stroke:none;stroke-width:28.88417244"
       transform="matrix(0.03462104,0,0,0.03462104,1471.1343,-136.14245)"
       id="g5281">
      <g
         inkscape:label="Layer 1"
         id="g5235"
         style="display:inline;opacity:1;fill:#831e6a;fill-opacity:0.86956518;stroke:none;stroke-width:28.88417244" />
      <g
         style="fill:#831e6a;fill-opacity:0.86956518;stroke:none;stroke-width:28.88417244"
         id="g5279">
        <g
           style="fill:#831e6a;fill-opacity:0.86956518;stroke:none;stroke-width:28.88417244"
           id="g5249">
          <path
             style="fill:#831e6a;fill-opacity:0.86956518;stroke:none;stroke-width:7.64227009px;stroke-linecap:butt;stroke-linejoin:miter;stroke-opacity:1"
             d="m -7807.6258,-4514.5883 242.0088,242.0085 63.6831,-63.6831 -242.0072,-242.0075 z"
             id="path5237"
             inkscape:connector-curvature="0" />
          <path
             style="opacity:1;fill:#831e6a;fill-opacity:0.86956518;stroke:none;stroke-width:5.77683496;stroke-linecap:round;stroke-linejoin:miter;stroke-miterlimit:4;stroke-dasharray:none;stroke-opacity:1"
             d="m -7476.4569,-4845.7559 a 234.17248,234.17238 45 0 0 -331.17,-3e-4 234.17248,234.17238 45 0 0 4e-4,331.1699 l 63.6861,-63.6862 a 144.10594,144.10588 45 0 1 4e-4,-203.7968 144.10594,144.10588 45 0 1 203.7966,-1e-4 z"
             id="path5239"
             inkscape:connector-curvature="0" />
          <path
             style="opacity:1;fill:#831e6a;fill-opacity:0.86956518;stroke:none;stroke-width:5.77683496;stroke-linecap:round;stroke-linejoin:miter;stroke-miterlimit:4;stroke-dasharray:none;stroke-opacity:1"
             d="m -7476.4569,-4845.7558 63.6865,63.6865 a 144.10594,144.10588 45 0 1 203.7965,1e-4 144.10594,144.10588 45 0 1 0,203.7965 l 63.6869,63.6868 a 234.17248,234.17238 45 0 0 -3e-4,-331.1699 234.17248,234.17238 45 0 0 -331.1696,0 z"
             id="path5241"
             inkscape:connector-curvature="0" />
          <path
             style="opacity:1;fill:#831e6a;fill-opacity:0.86956518;stroke:none;stroke-width:5.77683496;stroke-linecap:round;stroke-linejoin:miter;stroke-miterlimit:4;stroke-dasharray:none;stroke-opacity:1"
             d="m -7476.4569,-4845.7559 -63.6865,63.6865 a 90.066298,90.066343 45 0 0 127.373,1e-4 z"
             id="path5243"
             inkscape:connector-curvature="0" />
          <path
             inkscape:connector-curvature="0"
             id="path5245"
             d="m -7476.4567,-4310.7897 -63.6865,63.6866 a 90.066298,90.066343 45 0 0 127.373,0 z"
             style="opacity:1;fill:#831e6a;fill-opacity:0.86956518;stroke:none;stroke-width:5.77683496;stroke-linecap:round;stroke-linejoin:miter;stroke-miterlimit:4;stroke-dasharray:none;stroke-opacity:1" />
          <path
             style="fill:#831e6a;fill-opacity:0.86956518;stroke:none;stroke-width:7.64227009px;stroke-linecap:butt;stroke-linejoin:miter;stroke-opacity:1"
             d="m -7476.4567,-4310.7897 267.4828,-267.483 63.6868,63.6867 -267.4831,267.4829 z"
             id="path5247"
             inkscape:connector-curvature="0" />
        </g>
        <path
           id="path5251"
           d="m -8381.6919,-4914.3364 a 234.17238,234.17248 0 0 0 -234.1721,234.1728 234.17238,234.17248 0 0 0 234.1721,234.1722 234.17238,234.17248 0 0 0 234.1724,-234.1722 234.17238,234.17248 0 0 0 -234.1724,-234.1728 z m -0.01,90.0668 a 144.10588,144.10594 0 0 1 144.1059,144.106 144.10588,144.10594 0 0 1 -144.1059,144.1059 144.10588,144.10594 0 0 1 -144.1061,-144.1059 144.10588,144.10594 0 0 1 144.1061,-144.106 z"
           style="opacity:1;fill:#831e6a;fill-opacity:0.86956518;stroke:none;stroke-width:5.77683496;stroke-linecap:round;stroke-linejoin:miter;stroke-miterlimit:4;stroke-dasharray:none;stroke-opacity:1"
           inkscape:connector-curvature="0" />
        <path
           inkscape:connector-curvature="0"
           id="path5253"
           d="m -8237.5906,-4680.1638 h 90.0713 v 234.1725 h -90.0713 z"
           style="fill:#831e6a;fill-opacity:0.86956518;stroke:none;stroke-width:7.64227009px;stroke-linecap:butt;stroke-linejoin:miter;stroke-opacity:1" />
        <path
           inkscape:connector-curvature="0"
           id="path5255"
           d="m -8056.9069,-4914.3362 h 90.0713 v 468.3449 h -90.0713 v -468.3449"
           style="fill:#831e6a;fill-opacity:0.86956518;stroke:none;stroke-width:7.64227009px;stroke-linecap:butt;stroke-linejoin:miter;stroke-opacity:1" />
        <path
           inkscape:connector-curvature="0"
           id="path5257"
           d="m -6751.9114,-4914.3364 a 234.17236,234.17246 0 0 0 -234.1724,234.1728 234.17236,234.17246 0 0 0 234.1724,234.1722 234.17236,234.17246 0 0 0 222.0664,-162.1193 h -97.8318 a 144.10586,144.10592 0 0 1 -124.2451,72.053 144.10586,144.10592 0 0 1 -144.1059,-144.1059 h 288.212 39.0202 51.0564 a 234.17236,234.17246 0 0 0 -234.1722,-234.1728 z m -0.011,90.0668 a 144.10586,144.10592 0 0 1 124.3867,72.0525 h -248.6308 a 144.10586,144.10592 0 0 1 124.2441,-72.0525 z"
           style="opacity:1;fill:#831e6a;fill-opacity:0.86956518;stroke:none;stroke-width:5.77683496;stroke-linecap:round;stroke-linejoin:miter;stroke-miterlimit:4;stroke-dasharray:none;stroke-opacity:1" />
        <rect
           y="-4397.6538"
           x="-8615.8633"
           height="108.07972"
           width="649.02838"
           id="rect5259"
           style="opacity:1;fill:#831e6a;fill-opacity:0.86956518;stroke:none;stroke-width:14.44208527;stroke-linecap:round;stroke-linejoin:miter;stroke-miterlimit:4;stroke-dasharray:none;stroke-opacity:1" />
        <path
           style="opacity:1;fill:#831e6a;fill-opacity:0.86956518;stroke:none;stroke-width:5.77683496;stroke-linecap:round;stroke-linejoin:miter;stroke-miterlimit:4;stroke-dasharray:none;stroke-opacity:1"
           d="m -6192.9544,-4914.3364 a 234.17236,234.17246 0 0 0 -234.1724,234.1728 234.17236,234.17246 0 0 0 234.1724,234.1722 234.17236,234.17246 0 0 0 222.0663,-162.1193 h -97.8317 a 144.10586,144.10592 0 0 1 -124.2451,72.053 144.10586,144.10592 0 0 1 -144.1059,-144.1059 h 288.212 39.0201 51.0564 a 234.17236,234.17246 0 0 0 -234.1721,-234.1728 z m -0.011,90.0668 a 144.10586,144.10592 0 0 1 124.3867,72.0525 h -248.6308 a 144.10586,144.10592 0 0 1 124.2441,-72.0525 z"
           id="path5261"
           inkscape:connector-curvature="0" />
        <rect
           style="opacity:1;fill:#831e6a;fill-opacity:0.86956518;stroke:none;stroke-width:14.44208431;stroke-linecap:round;stroke-linejoin:miter;stroke-miterlimit:4;stroke-dasharray:none;stroke-opacity:1"
           id="rect5263"
           width="1027.3016"
           height="108.07972"
           x="-6986.084"
           y="-4397.6538" />
        <g
           style="fill:#831e6a;fill-opacity:0.86956518;stroke:none;stroke-width:28.88417244"
           id="g5277">
          <path
             inkscape:connector-curvature="0"
             id="path5265"
             d="m -7807.6258,-4514.5883 242.0088,242.0085 63.6831,-63.6831 -242.0072,-242.0075 z"
             style="fill:#831e6a;fill-opacity:0.86956518;stroke:none;stroke-width:7.64227009px;stroke-linecap:butt;stroke-linejoin:miter;stroke-opacity:1" />
          <path
             inkscape:connector-curvature="0"
             id="path5267"
             d="m -7476.4569,-4845.7559 a 234.17248,234.17238 45 0 0 -331.17,-3e-4 234.17248,234.17238 45 0 0 4e-4,331.1699 l 63.6861,-63.6862 a 144.10594,144.10588 45 0 1 4e-4,-203.7968 144.10594,144.10588 45 0 1 203.7966,-1e-4 z"
             style="opacity:1;fill:#831e6a;fill-opacity:0.86956518;stroke:none;stroke-width:5.77683496;stroke-linecap:round;stroke-linejoin:miter;stroke-miterlimit:4;stroke-dasharray:none;stroke-opacity:1" />
          <path
             inkscape:connector-curvature="0"
             id="path5269"
             d="m -7476.4569,-4845.7558 63.6865,63.6865 a 144.10594,144.10588 45 0 1 203.7965,1e-4 144.10594,144.10588 45 0 1 0,203.7965 l 63.6869,63.6868 a 234.17248,234.17238 45 0 0 -3e-4,-331.1699 234.17248,234.17238 45 0 0 -331.1696,0 z"
             style="opacity:1;fill:#831e6a;fill-opacity:0.86956518;stroke:none;stroke-width:5.77683496;stroke-linecap:round;stroke-linejoin:miter;stroke-miterlimit:4;stroke-dasharray:none;stroke-opacity:1" />
          <path
             inkscape:connector-curvature="0"
             id="path5271"
             d="m -7476.4569,-4845.7559 -63.6865,63.6865 a 90.066298,90.066343 45 0 0 127.373,1e-4 z"
             style="opacity:1;fill:#831e6a;fill-opacity:0.86956518;stroke:none;stroke-width:5.77683496;stroke-linecap:round;stroke-linejoin:miter;stroke-miterlimit:4;stroke-dasharray:none;stroke-opacity:1" />
          <path
             style="opacity:1;fill:#831e6a;fill-opacity:0.86956518;stroke:none;stroke-width:5.77683496;stroke-linecap:round;stroke-linejoin:miter;stroke-miterlimit:4;stroke-dasharray:none;stroke-opacity:1"
             d="m -7476.4567,-4310.7897 -63.6865,63.6866 a 90.066298,90.066343 45 0 0 127.373,0 z"
             id="path5273"
             inkscape:connector-curvature="0" />
          <path
             inkscape:connector-curvature="0"
             id="path5275"
             d="m -7476.4567,-4310.7897 267.4828,-267.483 63.6868,63.6867 -267.4831,267.4829 z"
             style="fill:#831e6a;fill-opacity:0.86956518;stroke:none;stroke-width:7.64227009px;stroke-linecap:butt;stroke-linejoin:miter;stroke-opacity:1" />
        </g>
      </g>
    </g>
  </g>
</svg>
