<?xml version="1.0" encoding="UTF-8" standalone="no"?>
<!-- Created with Inkscape (http://www.inkscape.org/) -->

<svg
   xmlns:dc="http://purl.org/dc/elements/1.1/"
   xmlns:cc="http://creativecommons.org/ns#"
   xmlns:rdf="http://www.w3.org/1999/02/22-rdf-syntax-ns#"
   xmlns:svg="http://www.w3.org/2000/svg"
   xmlns="http://www.w3.org/2000/svg"
   xmlns:sodipodi="http://sodipodi.sourceforge.net/DTD/sodipodi-0.dtd"
   xmlns:inkscape="http://www.inkscape.org/namespaces/inkscape"
   width="197.11743mm"
   height="43.738075mm"
   viewBox="0 0 197.11743 43.738075"
   version="1.1"
   id="svg8"
   inkscape:version="0.92.1 r15371"
   sodipodi:docname="sllogo.svg">
  <defs
     id="defs2">
    <inkscape:perspective
       id="perspective4596"
       inkscape:persp3d-origin="105 : 98.999994 : 1"
       inkscape:vp_z="210.00001 : 148.49999 : 1"
       inkscape:vp_y="0 : 999.99994 : 0"
       inkscape:vp_x="0 : 148.49999 : 1"
       sodipodi:type="inkscape:persp3d" />
    <inkscape:perspective
       id="perspective4596-3"
       inkscape:persp3d-origin="105 : 98.999994 : 1"
       inkscape:vp_z="210.00001 : 148.49999 : 1"
       inkscape:vp_y="0 : 999.99994 : 0"
       inkscape:vp_x="0 : 148.49999 : 1"
       sodipodi:type="inkscape:persp3d" />
    <inkscape:perspective
       id="perspective4596-1"
       inkscape:persp3d-origin="105 : 98.999994 : 1"
       inkscape:vp_z="210.00001 : 148.49999 : 1"
       inkscape:vp_y="0 : 999.99994 : 0"
       inkscape:vp_x="0 : 148.49999 : 1"
       sodipodi:type="inkscape:persp3d" />
    <inkscape:perspective
       id="perspective4596-34"
       inkscape:persp3d-origin="105 : 98.999994 : 1"
       inkscape:vp_z="210.00001 : 148.49999 : 1"
       inkscape:vp_y="0 : 999.99994 : 0"
       inkscape:vp_x="0 : 148.49999 : 1"
       sodipodi:type="inkscape:persp3d" />
  </defs>
  <sodipodi:namedview
     id="base"
     pagecolor="#ffffff"
     bordercolor="#666666"
     borderopacity="1.0"
     inkscape:pageopacity="0.0"
     inkscape:pageshadow="2"
     inkscape:zoom="0.22627417"
     inkscape:cx="192.5181"
     inkscape:cy="514.33292"
     inkscape:document-units="mm"
     inkscape:current-layer="layer1"
     showgrid="false"
     showborder="false"
     showguides="true"
     inkscape:guide-bbox="true"
     inkscape:snap-bbox="true"
     inkscape:bbox-paths="true"
     inkscape:bbox-nodes="true"
     inkscape:snap-bbox-edge-midpoints="true"
     inkscape:snap-bbox-midpoints="true"
     inkscape:object-paths="true"
     inkscape:snap-intersection-paths="true"
     inkscape:snap-smooth-nodes="true"
     inkscape:snap-midpoints="true"
     inkscape:snap-global="false"
     inkscape:snap-object-midpoints="true"
     inkscape:snap-center="true"
     inkscape:snap-nodes="true"
     inkscape:snap-others="true"
     inkscape:window-width="1280"
     inkscape:window-height="1002"
     inkscape:window-x="-8"
     inkscape:window-y="-8"
     inkscape:window-maximized="1"
     fit-margin-top="0"
     fit-margin-left="0"
     fit-margin-right="0"
     fit-margin-bottom="0">
    <sodipodi:guide
       position="-860.50455,-666.69717"
       orientation="0,1"
       id="guide5147"
       inkscape:locked="false" />
    <sodipodi:guide
       position="-863.42781,-571.44714"
       orientation="0,1"
       id="guide5149"
       inkscape:locked="false" />
    <sodipodi:guide
       position="-1489.2312,-206.32215"
       orientation="1,0"
       id="guide5153"
       inkscape:locked="false" />
    <sodipodi:guide
       position="-1818.5776,-193.09299"
       orientation="1,0"
       id="guide5155"
       inkscape:locked="false" />
    <sodipodi:guide
       position="-1649.6349,-217.89767"
       orientation="1,0"
       id="guide5157"
       inkscape:locked="false" />
    <sodipodi:guide
       position="-1725.7026,-214.59038"
       orientation="1,0"
       id="guide5159"
       inkscape:locked="false" />
    <sodipodi:guide
       position="-1568.6062,-234.43413"
       orientation="1,0"
       id="guide5161"
       inkscape:locked="false" />
    <sodipodi:guide
       position="-747.40571,-523.82214"
       orientation="1,0"
       id="guide5165"
       inkscape:locked="false" />
    <sodipodi:guide
       position="-874.4057,-476.19714"
       orientation="1,0"
       id="guide5167"
       inkscape:locked="false" />
    <sodipodi:guide
       position="-620.40572,-476.19713"
       orientation="1,0"
       id="guide5171"
       inkscape:locked="false" />
    <sodipodi:guide
       position="-937.9057,-523.82213"
       orientation="1,0"
       id="guide5173"
       inkscape:locked="false" />
    <sodipodi:guide
       position="-810.90571,-714.32216"
       orientation="1,0"
       id="guide5181"
       inkscape:locked="false" />
    <sodipodi:guide
       position="-683.90572,-714.32216"
       orientation="1,0"
       id="guide5183"
       inkscape:locked="false" />
    <sodipodi:guide
       position="-762.86765,-730.19714"
       orientation="0,1"
       id="guide5187"
       inkscape:locked="false" />
    <sodipodi:guide
       position="-759.35974,-634.94717"
       orientation="0,1"
       id="guide5295"
       inkscape:locked="false" />
    <sodipodi:guide
       position="-776.8993,-603.19713"
       orientation="0,1"
       id="guide5297"
       inkscape:locked="false" />
    <sodipodi:guide
       position="-767.54487,-698.44713"
       orientation="0,1"
       id="guide5299"
       inkscape:locked="false" />
    <sodipodi:guide
       position="-906.15571,-619.07214"
       orientation="1,0"
       id="guide5303"
       inkscape:locked="false" />
    <sodipodi:guide
       position="-842.6557,-619.07212"
       orientation="1,0"
       id="guide5307"
       inkscape:locked="false" />
    <sodipodi:guide
       position="-652.15571,-619.07217"
       orientation="1,0"
       id="guide5309"
       inkscape:locked="false" />
    <sodipodi:guide
       position="-636.28073,-615.19949"
       orientation="1,0"
       id="guide5311"
       inkscape:locked="false" />
    <sodipodi:guide
       position="-858.53073,-619.07214"
       orientation="1,0"
       id="guide5315"
       inkscape:locked="false" />
    <sodipodi:guide
       position="376.49469,-40.957565"
       orientation="1,0"
       id="guide5336"
       inkscape:locked="false" />
    <sodipodi:guide
       position="438.50639,6.584755"
       orientation="1,0"
       id="guide5338"
       inkscape:locked="false" />
    <sodipodi:guide
       position="-890.28071,-619.07212"
       orientation="1,0"
       id="guide5364"
       inkscape:locked="false" />
    <sodipodi:guide
       position="-325.30949,-976.56271"
       orientation="0,1"
       id="guide5408"
       inkscape:locked="false" />
    <sodipodi:guide
       position="196.73541,46.772166"
       orientation="1,0"
       id="guide4547"
       inkscape:locked="false" />
    <sodipodi:guide
       position="97.929195,60.511489"
       orientation="1,0"
       id="guide4549"
       inkscape:locked="false" />
    <sodipodi:guide
       position="94.713615,50.86473"
       orientation="1,0"
       id="guide4551"
       inkscape:locked="false" />
    <sodipodi:guide
       position="-0.292354,62.265446"
       orientation="1,0"
       id="guide4553"
       inkscape:locked="false" />
  </sodipodi:namedview>
  <metadata
     id="metadata5">
    <rdf:RDF>
      <cc:Work
         rdf:about="">
        <dc:format>image/svg+xml</dc:format>
        <dc:type
           rdf:resource="http://purl.org/dc/dcmitype/StillImage" />
        <dc:title></dc:title>
      </cc:Work>
    </rdf:RDF>
  </metadata>
  <g
     inkscape:label="Layer 1"
     inkscape:groupmode="layer"
     id="layer1"
     transform="translate(-1001.4057,508.68525)">
    <g
       aria-label="Short"
       transform="matrix(0.11502236,0,0,0.14132927,1210.5307,-192.49664)"
       style="font-style:normal;font-weight:normal;font-size:40px;line-height:1.25;font-family:sans-serif;letter-spacing:0px;word-spacing:0px;fill:#000000;fill-opacity:1;stroke:none;stroke-width:1.87210572"
       id="g5209">
      <path
         d="m -1809.7064,-2010.7529 -8.4183,3.608 29.2639,78.1707 q 6.8149,-5.2113 14.8324,-8.4183 8.4184,-3.6079 14.8324,-3.6079 2.4053,0 6.414,1.2026 2.4053,0.8017 7.6167,3.2071 9.621,4.0087 15.2333,5.6122 10.0219,3.207 19.2421,3.207 29.2639,0 49.3076,-19.6429 23.2509,-22.0482 23.2509,-61.334 0,-36.8806 -24.4534,-61.3341 -18.4404,-18.4403 -46.9026,-27.2596 -38.0831,-12.828 -53.3165,-25.2551 -21.2464,-17.2377 -21.2464,-46.9026 0,-29.6648 14.0307,-44.4972 12.4271,-12.828 33.6736,-12.828 21.6472,0 43.6955,20.0438 19.242,17.6385 38.8849,50.9112 l 6.0132,-4.4096 -26.4579,-74.1621 -14.4315,7.6167 q -3.6079,1.6035 -7.2158,0.4009 -2.4053,-0.4009 -8.0175,-3.2071 -7.6166,-3.6078 -12.828,-5.2113 -8.4184,-2.4053 -18.0394,-2.4053 -34.0745,0 -54.5191,23.6517 -16.8369,20.4447 -16.8369,46.5016 0,38.4841 29.2639,62.9375 18.8412,16.0351 55.7218,29.2639 28.4623,9.6211 42.8938,25.2553 16.8367,18.0394 16.8367,46.5016 0,32.8719 -16.4359,50.5104 -13.6297,14.4316 -34.0744,14.4316 -29.2639,0 -57.7261,-23.6518 -24.4535,-20.4447 -40.0877,-48.9069 z"
         style="font-style:normal;font-variant:normal;font-weight:normal;font-stretch:normal;font-size:400px;font-family:BatangChe;-inkscape-font-specification:'BatangChe, Normal';font-variant-ligatures:normal;font-variant-caps:normal;font-variant-numeric:normal;font-feature-settings:normal;text-align:start;writing-mode:lr-tb;text-anchor:start;stroke-width:1.87210572"
         id="path5199"
         inkscape:connector-curvature="0" />
      <path
         d="m -1638.1314,-1927.7717 h 82.1398 v -10.786 q -15.3495,0 -21.987,-4.9782 -6.6375,-5.393 -6.6375,-17.4235 v -121.5503 q 14.1048,-14.9345 26.9651,-22.4019 15.7642,-8.7117 31.9432,-8.7117 17.4236,0 26.1354,10.7859 7.882,10.3714 7.882,30.6989 v 111.1791 q 0,12.0305 -6.2226,17.0087 -6.2227,5.393 -21.987,5.393 v 10.786 h 82.1399 v -10.786 q -14.5197,0 -21.572,-5.393 -7.0525,-5.8079 -7.0525,-17.0087 v -118.6465 q 0,-27.7947 -14.1048,-41.8995 -12.4454,-12.4454 -34.0174,-12.4454 -18.2533,0 -38.5809,12.0306 -11.6157,7.0523 -31.1135,24.0611 l -0.4149,0.8297 v -140.2185 l -53.5153,21.1573 1.6594,6.6375 q 14.9344,0 20.3275,4.1486 6.2227,4.9782 6.2227,18.2532 v 226.0919 q 0,12.0305 -6.6375,17.4235 -6.2228,4.9782 -21.5721,4.9782 z"
         style="font-style:normal;font-variant:normal;font-weight:normal;font-stretch:normal;font-size:400px;font-family:BatangChe;-inkscape-font-specification:'BatangChe, Normal';font-variant-ligatures:normal;font-variant-caps:normal;font-variant-numeric:normal;font-feature-settings:normal;text-align:start;writing-mode:lr-tb;text-anchor:start;stroke-width:1.87210572"
         id="path5201"
         inkscape:connector-curvature="0" />
      <path
         d="m -1352.9945,-2128.5527 q -39.8437,0 -63.6719,30.8593 -21.0937,28.125 -21.0937,69.9219 0,41.0156 21.0937,69.1406 23.8282,30.8594 63.6719,30.8594 39.4531,0 62.8906,-30.8594 21.4844,-28.125 21.4844,-69.1406 0,-41.7969 -21.4844,-69.9219 -23.4375,-30.8593 -62.8906,-30.8593 z m 0,9.7656 q 26.9531,0 42.9688,27.7344 14.8437,25.3906 14.8437,62.8906 0,37.1094 -14.8437,62.5 -16.0157,28.125 -42.9688,28.125 -27.3437,0 -43.75,-28.125 -14.8437,-25.3906 -14.8437,-62.5 0,-37.5 14.8437,-62.8906 16.4063,-27.7344 43.75,-27.7344 z"
         style="font-style:normal;font-variant:normal;font-weight:normal;font-stretch:normal;font-size:400px;font-family:BatangChe;-inkscape-font-specification:'BatangChe, Normal';font-variant-ligatures:normal;font-variant-caps:normal;font-variant-numeric:normal;font-feature-settings:normal;text-align:start;writing-mode:lr-tb;text-anchor:start;stroke-width:1.87210572"
         id="path5203"
         inkscape:connector-curvature="0" />
      <path
         d="m -1268.6195,-1927.7716 h 78.4117 v -10.2964 q -15.8408,0 -21.7811,-4.7523 -5.5442,-4.7522 -5.5442,-16.6327 v -104.1528 -0.396 q 12.6725,-15.8407 18.2168,-21.781 9.1085,-9.1083 19.0089,-13.8607 5.9403,-3.1681 10.6925,-1.98 2.7721,0.7921 7.1283,4.3563 3.9602,3.1681 6.3363,4.3561 3.9602,2.3761 9.1084,2.3761 8.7124,0 13.8607,-5.9402 5.1482,-5.5443 5.1482,-13.0687 0,-7.5243 -5.1482,-13.0686 -5.1483,-5.9403 -13.0687,-5.9403 -18.6128,0 -39.6018,15.8409 -16.2367,12.2764 -31.6814,32.8694 v -46.7302 l -51.0864,19.801 2.3762,5.9403 q 14.6527,0 19.8008,3.5642 4.7522,3.5641 4.7522,13.4645 v 124.3497 q 0,11.4845 -7.5243,16.6327 -6.3362,4.7523 -19.4049,4.7523 z"
         style="font-style:normal;font-variant:normal;font-weight:normal;font-stretch:normal;font-size:400px;font-family:BatangChe;-inkscape-font-specification:'BatangChe, Normal';font-variant-ligatures:normal;font-variant-caps:normal;font-variant-numeric:normal;font-feature-settings:normal;text-align:start;writing-mode:lr-tb;text-anchor:start;stroke-width:1.87210572"
         id="path5205"
         inkscape:connector-curvature="0" />
      <path
         d="m -1119.9518,-2116.3759 h 31.632 v 142.1436 q 0,23.2234 11.2113,35.636 10.8108,11.2113 29.6298,10.811 15.2155,0 28.0283,-8.4085 13.6139,-9.2094 23.62392,-27.2275 l -4.80482,-3.2033 q -8.4085,9.2093 -17.6178,14.815 -10.0102,6.4064 -18.8189,6.4064 -13.2135,0 -20.0204,-6.006 -6.8069,-6.0061 -6.8069,-17.2175 v -147.7492 h 55.6564 v -12.0121 h -55.6564 v -67.6684 h -8.4084 q -1.6015,34.8353 -14.0142,52.453 -12.0121,16.8171 -33.6339,18.8191 z"
         style="font-style:normal;font-variant:normal;font-weight:normal;font-stretch:normal;font-size:400px;font-family:BatangChe;-inkscape-font-specification:'BatangChe, Normal';font-variant-ligatures:normal;font-variant-caps:normal;font-variant-numeric:normal;font-feature-settings:normal;text-align:start;writing-mode:lr-tb;text-anchor:start;stroke-width:1.87210548"
         id="path5207"
         inkscape:connector-curvature="0" />
    </g>
    <flowRoot
       xml:space="preserve"
       id="flowRoot5217"
       style="font-style:normal;font-weight:normal;font-size:40px;line-height:1.25;font-family:sans-serif;letter-spacing:0px;word-spacing:0px;fill:#000000;fill-opacity:1;stroke:none;stroke-width:1.23261178"
       transform="matrix(0.21465261,0,0,0.21465261,1229.5317,-488.13774)"><flowRegion
         style="stroke-width:1.23261178"
         id="flowRegion5213"><rect
           style="stroke-width:1.23261178"
           id="rect5211"
           width="1656.6501"
           height="618.21338"
           x="-2028.3864"
           y="-2429.1768" /></flowRegion><flowPara
         style="stroke-width:1.23261178"
         id="flowPara5215" /></flowRoot>    <g
       aria-label="link."
       transform="matrix(0.21465261,0,0,0.21465261,1390.5794,-604.39938)"
       style="font-style:normal;font-variant:normal;font-weight:bold;font-stretch:normal;font-size:400px;line-height:1.25;font-family:Aharoni;-inkscape-font-specification:'Aharoni, Bold';font-variant-ligatures:normal;font-variant-caps:normal;font-variant-numeric:normal;font-feature-settings:normal;text-align:start;letter-spacing:0px;word-spacing:0px;writing-mode:lr-tb;text-anchor:start;fill:#000000;fill-opacity:1;stroke:none;stroke-width:1.23261178"
       id="g5231">
      <g
         id="g5229"
         transform="matrix(0.65840927,0,0,0.65840927,-262.54906,1562.315)"
         style="stroke-width:1.87210572">
        <path
           style="stroke-width:1.87210572"
           inkscape:connector-curvature="0"
           id="path5219"
           d="m -1592.9356,-1386.1446 h -67.582 v -309.4762 h 67.582 z" />
        <path
           style="stroke-width:1.87210572"
           inkscape:connector-curvature="0"
           id="path5221"
           d="m -1503.7812,-1620.8254 q 0,14.2452 -9.8621,24.1073 -9.6795,9.6795 -23.9247,9.6795 -14.0626,0 -23.9246,-9.8621 -9.6795,-9.8621 -9.6795,-23.9247 0,-14.0626 9.6795,-23.7421 9.862,-9.862 23.9246,-9.862 14.0626,0 23.9247,9.862 9.8621,9.6795 9.8621,23.7421 z m -3.8353,234.6809 h -59.903 v -169.4816 h 59.903 z" />
        <path
           style="stroke-width:1.87210572"
           inkscape:connector-curvature="0"
           id="path5223"
           d="m -1276.2312,-1386.1446 h -69.4687 v -99.5436 q 0,-26.0506 -5.9301,-34.5225 -8.6837,-12.4957 -26.0509,-12.4957 -15.8846,0 -26.6861,10.8014 -9.7424,9.7426 -9.7424,30.4984 v 105.262 h -69.4687 v -196.5455 h 69.4687 v 24.78 q 12.0722,-13.9785 22.2384,-19.6969 16.5199,-9.3189 41.2998,-9.3189 31.7693,0 51.678,17.1553 22.662,19.4851 22.662,58.4553 z" />
        <path
           style="stroke-width:1.87210572"
           inkscape:connector-curvature="0"
           id="path5225"
           d="m -1016.148,-1386.1446 h -94.7798 l -74.3814,-77.8841 v 77.8841 h -67.582 v -309.4763 h 67.582 v 187.0869 l 70.6727,-68.8183 h 92.7192 l -95.8099,88.1864 z" />
        <path
           style="stroke-width:1.87210572"
           inkscape:connector-curvature="0"
           id="path5227"
           d="m -960.16502,-1486.0516 q 0,23.0382 -16.12679,39.1652 -16.12678,16.1267 -39.16499,16.1267 -23.9598,0 -40.5474,-16.1267 -16.1268,-16.127 -16.1268,-39.1652 0,-23.0381 16.1268,-38.7041 16.5876,-16.127 40.5474,-16.127 23.03822,0 39.165,16.127 16.12679,15.666 16.12678,38.7041 z" />
      </g>
    </g>
  </g>
</svg>
